<mxfile host="app.diagrams.net" modified="2022-06-23T06:24:58.298Z" agent="5.0 (Windows NT 10.0; WOW64) AppleWebKit/537.36 (KHTML, like Gecko) Chrome/101.0.0.0 Safari/537.36" etag="fqzsYezXOoiAofWKvBz2" version="20.0.1" type="github">
  <diagram id="Zzt1t-ecyWDR8fseFdM6" name="Page-1">
    <mxGraphModel dx="1662" dy="706" grid="1" gridSize="10" guides="1" tooltips="1" connect="1" arrows="1" fold="1" page="1" pageScale="1" pageWidth="827" pageHeight="1169" math="0" shadow="0">
      <root>
        <mxCell id="0" />
        <mxCell id="1" parent="0" />
        <mxCell id="VUn6PzHF7CEKQ6ItF6us-3" style="edgeStyle=orthogonalEdgeStyle;rounded=0;orthogonalLoop=1;jettySize=auto;html=1;exitX=0.5;exitY=1;exitDx=0;exitDy=0;entryX=0.5;entryY=0;entryDx=0;entryDy=0;" edge="1" parent="1" source="VUn6PzHF7CEKQ6ItF6us-1" target="VUn6PzHF7CEKQ6ItF6us-2">
          <mxGeometry relative="1" as="geometry" />
        </mxCell>
        <mxCell id="VUn6PzHF7CEKQ6ItF6us-1" value="举报记录" style="rounded=0;whiteSpace=wrap;html=1;" vertex="1" parent="1">
          <mxGeometry x="190" y="80" width="120" height="60" as="geometry" />
        </mxCell>
        <mxCell id="VUn6PzHF7CEKQ6ItF6us-12" style="edgeStyle=orthogonalEdgeStyle;rounded=0;orthogonalLoop=1;jettySize=auto;html=1;exitX=0.5;exitY=1;exitDx=0;exitDy=0;entryX=0.5;entryY=0;entryDx=0;entryDy=0;" edge="1" parent="1" source="VUn6PzHF7CEKQ6ItF6us-2" target="VUn6PzHF7CEKQ6ItF6us-11">
          <mxGeometry relative="1" as="geometry">
            <mxPoint x="250" y="300" as="targetPoint" />
          </mxGeometry>
        </mxCell>
        <mxCell id="VUn6PzHF7CEKQ6ItF6us-2" value="核查记录" style="rounded=0;whiteSpace=wrap;html=1;" vertex="1" parent="1">
          <mxGeometry x="190" y="200" width="120" height="60" as="geometry" />
        </mxCell>
        <mxCell id="VUn6PzHF7CEKQ6ItF6us-6" style="rounded=0;orthogonalLoop=1;jettySize=auto;html=1;exitX=0;exitY=0.5;exitDx=0;exitDy=0;entryX=1;entryY=0.5;entryDx=0;entryDy=0;edgeStyle=entityRelationEdgeStyle;" edge="1" parent="1" source="VUn6PzHF7CEKQ6ItF6us-5" target="VUn6PzHF7CEKQ6ItF6us-2">
          <mxGeometry relative="1" as="geometry" />
        </mxCell>
        <mxCell id="VUn6PzHF7CEKQ6ItF6us-8" style="rounded=0;orthogonalLoop=1;jettySize=auto;html=1;exitX=0.5;exitY=1;exitDx=0;exitDy=0;entryX=0.5;entryY=0;entryDx=0;entryDy=0;edgeStyle=orthogonalEdgeStyle;" edge="1" parent="1" source="VUn6PzHF7CEKQ6ItF6us-5" target="VUn6PzHF7CEKQ6ItF6us-17">
          <mxGeometry relative="1" as="geometry">
            <mxPoint x="560" y="230" as="targetPoint" />
          </mxGeometry>
        </mxCell>
        <mxCell id="VUn6PzHF7CEKQ6ItF6us-5" value="监听器" style="ellipse;whiteSpace=wrap;html=1;aspect=fixed;" vertex="1" parent="1">
          <mxGeometry x="430" y="70" width="80" height="80" as="geometry" />
        </mxCell>
        <mxCell id="VUn6PzHF7CEKQ6ItF6us-16" style="edgeStyle=orthogonalEdgeStyle;rounded=0;orthogonalLoop=1;jettySize=auto;html=1;exitX=1;exitY=0.5;exitDx=0;exitDy=0;entryX=0.08;entryY=0;entryDx=0;entryDy=0;entryPerimeter=0;" edge="1" parent="1" source="VUn6PzHF7CEKQ6ItF6us-11" target="VUn6PzHF7CEKQ6ItF6us-15">
          <mxGeometry relative="1" as="geometry" />
        </mxCell>
        <mxCell id="VUn6PzHF7CEKQ6ItF6us-11" value="&lt;span style=&quot;&quot;&gt;核查操作&lt;/span&gt;" style="ellipse;whiteSpace=wrap;html=1;" vertex="1" parent="1">
          <mxGeometry x="190" y="310" width="120" height="50" as="geometry" />
        </mxCell>
        <mxCell id="VUn6PzHF7CEKQ6ItF6us-15" value="MQ" style="strokeWidth=2;html=1;shape=mxgraph.flowchart.direct_data;whiteSpace=wrap;" vertex="1" parent="1">
          <mxGeometry x="430" y="400" width="100" height="60" as="geometry" />
        </mxCell>
        <mxCell id="VUn6PzHF7CEKQ6ItF6us-18" style="edgeStyle=orthogonalEdgeStyle;rounded=0;orthogonalLoop=1;jettySize=auto;html=1;exitX=0.5;exitY=1;exitDx=0;exitDy=0;entryX=1;entryY=0.5;entryDx=0;entryDy=0;entryPerimeter=0;" edge="1" parent="1" source="VUn6PzHF7CEKQ6ItF6us-17" target="VUn6PzHF7CEKQ6ItF6us-15">
          <mxGeometry relative="1" as="geometry" />
        </mxCell>
        <mxCell id="VUn6PzHF7CEKQ6ItF6us-19" value="YES" style="edgeLabel;html=1;align=center;verticalAlign=middle;resizable=0;points=[];" vertex="1" connectable="0" parent="VUn6PzHF7CEKQ6ItF6us-18">
          <mxGeometry x="-0.7524" y="-3" relative="1" as="geometry">
            <mxPoint as="offset" />
          </mxGeometry>
        </mxCell>
        <mxCell id="VUn6PzHF7CEKQ6ItF6us-17" value="&lt;span style=&quot;&quot;&gt;是否满足自动触发处理规则&lt;/span&gt;" style="rhombus;whiteSpace=wrap;html=1;" vertex="1" parent="1">
          <mxGeometry x="530" y="220" width="160" height="80" as="geometry" />
        </mxCell>
        <mxCell id="VUn6PzHF7CEKQ6ItF6us-25" style="rounded=0;orthogonalLoop=1;jettySize=auto;html=1;exitX=0.5;exitY=0;exitDx=0;exitDy=0;entryX=0.5;entryY=1;entryDx=0;entryDy=0;entryPerimeter=0;shape=link;" edge="1" parent="1" source="VUn6PzHF7CEKQ6ItF6us-21" target="VUn6PzHF7CEKQ6ItF6us-15">
          <mxGeometry relative="1" as="geometry" />
        </mxCell>
        <mxCell id="VUn6PzHF7CEKQ6ItF6us-28" value="pull\push" style="edgeLabel;html=1;align=center;verticalAlign=middle;resizable=0;points=[];" vertex="1" connectable="0" parent="VUn6PzHF7CEKQ6ItF6us-25">
          <mxGeometry x="-0.1232" y="-3" relative="1" as="geometry">
            <mxPoint as="offset" />
          </mxGeometry>
        </mxCell>
        <mxCell id="VUn6PzHF7CEKQ6ItF6us-21" value="业务1" style="shape=process;whiteSpace=wrap;html=1;backgroundOutline=1;" vertex="1" parent="1">
          <mxGeometry x="140" y="585" width="120" height="60" as="geometry" />
        </mxCell>
        <mxCell id="VUn6PzHF7CEKQ6ItF6us-26" style="edgeStyle=none;shape=link;rounded=0;orthogonalLoop=1;jettySize=auto;html=1;exitX=0.5;exitY=0;exitDx=0;exitDy=0;" edge="1" parent="1" source="VUn6PzHF7CEKQ6ItF6us-22">
          <mxGeometry relative="1" as="geometry">
            <mxPoint x="480" y="460" as="targetPoint" />
          </mxGeometry>
        </mxCell>
        <mxCell id="VUn6PzHF7CEKQ6ItF6us-22" value="业务1" style="shape=process;whiteSpace=wrap;html=1;backgroundOutline=1;" vertex="1" parent="1">
          <mxGeometry x="353.5" y="585" width="120" height="60" as="geometry" />
        </mxCell>
        <mxCell id="VUn6PzHF7CEKQ6ItF6us-27" style="edgeStyle=none;shape=link;rounded=0;orthogonalLoop=1;jettySize=auto;html=1;exitX=0.5;exitY=0;exitDx=0;exitDy=0;" edge="1" parent="1" source="VUn6PzHF7CEKQ6ItF6us-23">
          <mxGeometry relative="1" as="geometry">
            <mxPoint x="480" y="460" as="targetPoint" />
          </mxGeometry>
        </mxCell>
        <mxCell id="VUn6PzHF7CEKQ6ItF6us-23" value="业务1" style="shape=process;whiteSpace=wrap;html=1;backgroundOutline=1;" vertex="1" parent="1">
          <mxGeometry x="570" y="585" width="120" height="60" as="geometry" />
        </mxCell>
        <mxCell id="VUn6PzHF7CEKQ6ItF6us-29" value="pull\push" style="edgeLabel;html=1;align=center;verticalAlign=middle;resizable=0;points=[];" vertex="1" connectable="0" parent="1">
          <mxGeometry x="440.0034287677483" y="540.0042010372116" as="geometry" />
        </mxCell>
        <mxCell id="VUn6PzHF7CEKQ6ItF6us-30" value="pull\push" style="edgeLabel;html=1;align=center;verticalAlign=middle;resizable=0;points=[];" vertex="1" connectable="0" parent="1">
          <mxGeometry x="570.0034287677482" y="540.0042010372116" as="geometry" />
        </mxCell>
        <mxCell id="VUn6PzHF7CEKQ6ItF6us-32" style="edgeStyle=orthogonalEdgeStyle;rounded=0;orthogonalLoop=1;jettySize=auto;html=1;exitX=0.75;exitY=1;exitDx=0;exitDy=0;entryX=0;entryY=0.5;entryDx=0;entryDy=0;" edge="1" parent="1" source="VUn6PzHF7CEKQ6ItF6us-31" target="VUn6PzHF7CEKQ6ItF6us-11">
          <mxGeometry relative="1" as="geometry" />
        </mxCell>
        <mxCell id="VUn6PzHF7CEKQ6ItF6us-31" value="Net服务" style="shape=process;whiteSpace=wrap;html=1;backgroundOutline=1;" vertex="1" parent="1">
          <mxGeometry x="40" y="80" width="120" height="70" as="geometry" />
        </mxCell>
      </root>
    </mxGraphModel>
  </diagram>
</mxfile>
